#Comment line ignore any data following # character 
#Hierarchical Translation and Rotation (.htr) file 
[Header]	
#Header keywords are followed by a single value 
FileType HTR		#Single word string
DataType HTRS		#Translation followed by rotation and scale data
FileVersion 1		#integer
NumSegments 64		#integer
NumFrames 3		#integer
DataFrameRate 30		#integer, data frame rate in this file
EulerRotationOrder ZYX
CalibrationUnits mm
RotationUnits Degrees
GlobalAxisofGravity Y
BoneLengthAxis Y
ScaleFactor 1.00
[SegmentNames&Hierarchy]
#CHILD	PARENT
Pinger_Root GLOBAL
Pelvis Pinger_Root
L_Hip Pelvis
R_Hip Pelvis
Rear_Leg01 Pelvis
Spine1 Pelvis
L_Leg01 L_Hip
L_Leg02 L_Leg01
L_Leg03 L_Leg02
L_Foot L_Leg03
L_Toe1_01 L_Foot
L_Toe2_01 L_Foot
L_Toe3_01 L_Foot
planeAlignerLeft L_Foot
L_Toe1_02 L_Toe1_01
L_Toe1_03 L_Toe1_02
L_Toe2_02 L_Toe2_01
L_Toe2_03 L_Toe2_02
L_Toe3_02 L_Toe3_01
L_Toe3_03 L_Toe3_02
planeLockWeightLeft planeAlignerLeft
R_Leg01 R_Hip
R_Leg02 R_Leg01
R_Leg03 R_Leg02
R_Foot R_Leg03
planeAlignerRight R_Foot
R_Toe1_01 R_Foot
R_Toe2_01 R_Foot
R_Toe3_01 R_Foot
planeLockWeightRight planeAlignerRight
R_Toe1_02 R_Toe1_01
R_Toe1_03 R_Toe1_02
R_Toe2_02 R_Toe2_01
R_Toe2_03 R_Toe2_02
R_Toe3_02 R_Toe3_01
R_Toe3_03 R_Toe3_02
Rear_Leg02 Rear_Leg01
Rear_Leg03 Rear_Leg02
Rear_Leg04 Rear_Leg03
Rear_Foot Rear_Leg04
planeAlignerCenter Rear_Foot
Rear_Toe1_01 Rear_Foot
Rear_Toe2_01 Rear_Foot
Rear_Toe3_01 Rear_Foot
planeLockWeightCenter planeAlignerCenter
Rear_Toe1_02 Rear_Toe1_01
Rear_Toe1_03 Rear_Toe1_02
Rear_Toe2_02 Rear_Toe2_01
Rear_Toe2_03 Rear_Toe2_02
Rear_Toe3_02 Rear_Toe3_01
Rear_Toe3_03 Rear_Toe3_02
Back_Bone Spine1
Head Spine1
Motor_Bone Back_Bone
Ping_Mechanism Back_Bone
BN_LookIK Head
bottomMouth Head
L_Mouth01 Head
L_mouthFront Head
mouthGun Head
R_Mouth01 Head
R_mouthFront Head
TopMouth Head
weapon_bone Head
[BasePosition]
#SegmentName Tx, Ty, Tz, Rx, Ry, Rz, BoneLength
Pinger_Root 0.000000 0.000000 0.000000 -90.000000 0.000000 0.000000 10.000000 
Pelvis 0.000000 0.000000 0.000000 0.000000 0.000000 0.000000 10.000000 
L_Hip 0.000000 0.000000 0.000000 0.000000 0.000000 0.000000 10.000000 
R_Hip 0.000000 0.000000 0.000000 0.000000 0.000000 0.000000 10.000000 
Rear_Leg01 0.000000 0.000000 0.000000 0.000000 0.000000 0.000000 10.000000 
Spine1 0.000000 0.000000 0.000000 0.000000 0.000000 0.000000 10.000000 
L_Leg01 0.000000 0.000000 0.000000 0.000000 0.000000 0.000000 10.000000 
L_Leg02 0.000000 0.000000 0.000000 0.000000 0.000000 0.000000 10.000000 
L_Leg03 0.000000 0.000000 0.000000 0.000000 0.000000 0.000000 10.000000 
L_Foot 0.000000 0.000000 0.000000 0.000000 0.000000 0.000000 10.000000 
L_Toe1_01 0.000000 0.000000 0.000000 0.000000 0.000000 0.000000 10.000000 
L_Toe2_01 0.000000 0.000000 0.000000 0.000000 0.000000 0.000000 10.000000 
L_Toe3_01 0.000000 0.000000 0.000000 0.000000 0.000000 0.000000 10.000000 
planeAlignerLeft 0.000000 0.000000 0.000000 0.000000 0.000000 0.000000 10.000000 
L_Toe1_02 0.000000 0.000000 0.000000 0.000000 0.000000 0.000000 10.000000 
L_Toe1_03 0.000000 0.000000 0.000000 0.000000 0.000000 0.000000 10.000000 
L_Toe2_02 0.000000 0.000000 0.000000 0.000000 0.000000 0.000000 10.000000 
L_Toe2_03 0.000000 0.000000 0.000000 0.000000 0.000000 0.000000 10.000000 
L_Toe3_02 0.000000 0.000000 0.000000 0.000000 0.000000 0.000000 10.000000 
L_Toe3_03 0.000000 0.000000 0.000000 0.000000 0.000000 0.000000 10.000000 
planeLockWeightLeft 0.000000 0.000000 0.000000 0.000000 0.000000 0.000000 10.000000 
R_Leg01 0.000000 0.000000 0.000000 0.000000 0.000000 0.000000 10.000000 
R_Leg02 0.000000 0.000000 0.000000 0.000000 0.000000 0.000000 10.000000 
R_Leg03 0.000000 0.000000 0.000000 0.000000 0.000000 0.000000 10.000000 
R_Foot 0.000000 0.000000 0.000000 0.000000 0.000000 0.000000 10.000000 
planeAlignerRight 0.000000 0.000000 0.000000 0.000000 0.000000 0.000000 10.000000 
R_Toe1_01 0.000000 0.000000 0.000000 0.000000 0.000000 0.000000 10.000000 
R_Toe2_01 0.000000 0.000000 0.000000 0.000000 0.000000 0.000000 10.000000 
R_Toe3_01 0.000000 0.000000 0.000000 0.000000 0.000000 0.000000 10.000000 
planeLockWeightRight 0.000000 0.000000 0.000000 0.000000 0.000000 0.000000 10.000000 
R_Toe1_02 0.000000 0.000000 0.000000 0.000000 0.000000 0.000000 10.000000 
R_Toe1_03 0.000000 0.000000 0.000000 0.000000 0.000000 0.000000 10.000000 
R_Toe2_02 0.000000 0.000000 0.000000 0.000000 0.000000 0.000000 10.000000 
R_Toe2_03 0.000000 0.000000 0.000000 0.000000 0.000000 0.000000 10.000000 
R_Toe3_02 0.000000 0.000000 0.000000 0.000000 0.000000 0.000000 10.000000 
R_Toe3_03 0.000000 0.000000 0.000000 0.000000 0.000000 0.000000 10.000000 
Rear_Leg02 0.000000 0.000000 0.000000 0.000000 0.000000 0.000000 10.000000 
Rear_Leg03 0.000000 0.000000 0.000000 0.000000 0.000000 0.000000 10.000000 
Rear_Leg04 0.000000 0.000000 0.000000 0.000000 0.000000 0.000000 10.000000 
Rear_Foot 0.000000 0.000000 0.000000 0.000000 0.000000 0.000000 10.000000 
planeAlignerCenter 0.000000 0.000000 0.000000 0.000000 0.000000 0.000000 10.000000 
Rear_Toe1_01 0.000000 0.000000 0.000000 0.000000 0.000000 0.000000 10.000000 
Rear_Toe2_01 0.000000 0.000000 0.000000 0.000000 0.000000 0.000000 10.000000 
Rear_Toe3_01 0.000000 0.000000 0.000000 0.000000 0.000000 0.000000 10.000000 
planeLockWeightCenter 0.000000 0.000000 0.000000 0.000000 0.000000 0.000000 10.000000 
Rear_Toe1_02 0.000000 0.000000 0.000000 0.000000 0.000000 0.000000 10.000000 
Rear_Toe1_03 0.000000 0.000000 0.000000 0.000000 0.000000 0.000000 10.000000 
Rear_Toe2_02 0.000000 0.000000 0.000000 0.000000 0.000000 0.000000 10.000000 
Rear_Toe2_03 0.000000 0.000000 0.000000 0.000000 0.000000 0.000000 10.000000 
Rear_Toe3_02 0.000000 0.000000 0.000000 0.000000 0.000000 0.000000 10.000000 
Rear_Toe3_03 0.000000 0.000000 0.000000 0.000000 0.000000 0.000000 10.000000 
Back_Bone 0.000000 0.000000 0.000000 0.000000 0.000000 0.000000 10.000000 
Head 0.000000 0.000000 0.000000 0.000000 0.000000 0.000000 10.000000 
Motor_Bone 0.000000 0.000000 0.000000 0.000000 0.000000 0.000000 10.000000 
Ping_Mechanism 0.000000 0.000000 0.000000 0.000000 0.000000 0.000000 10.000000 
BN_LookIK 0.000000 0.000000 0.000000 0.000000 0.000000 0.000000 10.000000 
bottomMouth 0.000000 0.000000 0.000000 0.000000 0.000000 0.000000 10.000000 
L_Mouth01 0.000000 0.000000 0.000000 0.000000 0.000000 0.000000 10.000000 
L_mouthFront 0.000000 0.000000 0.000000 0.000000 0.000000 0.000000 10.000000 
mouthGun 0.000000 0.000000 0.000000 0.000000 0.000000 0.000000 10.000000 
R_Mouth01 0.000000 0.000000 0.000000 0.000000 0.000000 0.000000 10.000000 
R_mouthFront 0.000000 0.000000 0.000000 0.000000 0.000000 0.000000 10.000000 
TopMouth 0.000000 0.000000 0.000000 0.000000 0.000000 0.000000 10.000000 
weapon_bone 0.000000 0.000000 0.000000 0.000000 0.000000 0.000000 10.000000 
#Beginning of Data. Separated by tabs
#Fr	Tx	Ty	Tz	Rx	Ry	Rz	SF
[Pinger_Root]
7 0.000000 -777.777832 0.000000 -0.000075 -0.000000 -0.000020 777.777832
8 0.000000 -907.407532 0.000000 -0.000075 -0.000000 -0.000020 907.407532
9 0.000000 -1037.037109 0.000000 -0.000075 -0.000000 -0.000020 1037.037109
[Pelvis]
7 -237.792709 389.327423 5188.121094 -82.482605 -70.170990 90.418800 5208.140137
8 -275.521881 370.723969 5199.923828 -85.009315 -67.542656 92.407883 5220.398438
9 -302.903137 364.334930 5207.424805 -87.014641 -66.477394 93.670845 5228.935059
[L_Hip]
7 5.766392 125.831482 872.656799 -178.250168 -81.786369 87.376007 881.701050
8 5.766392 125.831482 872.656799 -178.250168 -81.786369 87.376007 881.701050
9 5.766392 125.831482 872.656799 -178.250168 -81.786369 87.376007 881.701050
[R_Hip]
7 5.765438 125.836372 -872.654907 -1.748770 81.786041 87.376961 881.699829
8 5.765438 125.836372 -872.654907 -1.748770 81.786041 87.376961 881.699829
9 5.765438 125.836372 -872.654907 -1.748770 81.786041 87.376961 881.699829
[Rear_Leg01]
7 -192.298416 -925.602966 -0.001907 -179.280930 -2.938987 -138.673935 945.367432
8 -192.298416 -925.602966 -0.001907 -176.571320 -2.650468 -141.976517 945.367432
9 -192.298416 -925.602966 -0.001907 -176.736557 -1.815388 -149.687790 945.367432
[Spine1]
7 290.604584 5.007505 0.000477 -4.972362 0.396760 0.890362 290.647736
8 290.604584 5.007505 0.000477 -3.972118 0.871776 -1.453866 290.647736
9 290.604584 5.007505 0.000477 -2.913710 1.335321 -2.234127 290.647736
[L_Leg01]
7 761.932007 -0.002384 -0.069261 73.683708 -48.785324 -72.971313 761.932068
8 761.932007 -0.002384 -0.069261 71.066971 -52.994987 -70.393333 761.932068
9 761.932007 -0.002384 -0.069261 68.819267 -55.071373 -68.193565 761.932068
[L_Leg02]
7 1441.140503 -0.000954 -0.000715 -1.377627 0.668508 -105.754799 1441.140503
8 1441.140503 -0.000954 -0.000715 -1.373722 0.654241 -106.447906 1441.140503
9 1441.140503 -0.000954 -0.000715 -1.373335 0.636925 -106.737747 1441.140503
[L_Leg03]
7 1686.963989 -0.000715 -0.000954 0.061345 -0.012888 94.462776 1686.963989
8 1686.963989 -0.000715 -0.000954 0.057773 -0.013113 95.173851 1686.963989
9 1686.963989 -0.000715 -0.000954 0.054198 -0.013293 95.884972 1686.963989
[L_Foot]
7 3041.570068 -30.715107 11.297464 -9.871781 16.738054 66.304176 3041.746094
8 3041.570068 -30.715107 11.297464 -9.228836 16.764818 64.712708 3041.746094
9 3041.570068 -30.715107 11.297464 -8.586792 16.808668 63.121346 3041.746094
[L_Toe1_01]
7 -188.216690 -224.732346 -21.137953 89.495331 -2.549388 -164.259766 293.899567
8 -188.216690 -224.732346 -21.137953 89.440964 -2.312401 -163.971130 293.899567
9 -188.216690 -224.732346 -21.137953 89.400009 -2.165307 -163.475266 293.899567
[L_Toe2_01]
7 200.746536 -219.926590 148.838394 -77.657616 -13.889054 -44.431973 332.896027
8 200.746536 -219.926590 148.838394 -77.700775 -13.747919 -44.401184 332.896027
9 200.746536 -219.926590 148.838394 -77.743828 -13.606762 -44.370514 332.896027
[L_Toe3_01]
7 188.832520 -219.859131 -191.078659 -105.557816 15.697233 -45.768761 347.140900
8 188.832520 -219.859131 -191.078659 -105.691635 16.078686 -45.940907 347.140900
9 188.832520 -219.859131 -191.078659 -105.826874 16.459726 -46.114288 347.140900
[planeAlignerLeft]
7 -28.258926 -614.274902 12.960051 0.000000 -90.000000 -90.001900 615.061096
8 -34.324284 -615.557373 8.430019 0.000000 -90.000000 -90.001900 616.571228
9 -40.389633 -616.839783 3.899992 0.000000 -90.000000 -90.001900 618.172974
[L_Toe1_02]
7 413.761139 0.000477 0.000000 0.001407 -23.072332 0.001407 413.761139
8 413.761139 0.000477 0.000000 0.001405 -23.292667 0.001405 413.761139
9 413.761139 0.000477 0.000000 0.001403 -23.513020 0.001403 413.761139
[L_Toe1_03]
7 464.317322 0.000358 -0.000089 0.011608 78.394966 0.011608 464.317322
8 464.317322 0.000358 -0.000089 0.010614 77.300545 0.010614 464.317322
9 464.317322 0.000358 -0.000089 0.009776 76.205811 0.009776 464.317322
[L_Toe2_02]
7 342.235809 -0.000477 0.000238 0.001180 -78.108490 0.001180 342.235809
8 342.235809 -0.000477 0.000238 0.001180 -78.270103 0.001180 342.235809
9 342.235809 -0.000477 0.000238 0.001180 -78.431694 0.001180 342.235809
[L_Toe2_03]
7 420.210846 -0.000715 0.000000 -179.997360 75.021172 -179.993835 420.210846
8 420.210846 -0.000715 0.000000 -179.997635 74.042152 -179.994095 420.210846
9 420.210846 -0.000715 0.000000 -179.997864 73.063316 -179.994339 420.210846
[L_Toe3_02]
7 329.270111 0.000954 0.000000 0.001177 -81.923790 0.001177 329.270111
8 329.270111 0.000954 0.000000 0.001176 -81.978012 0.001176 329.270111
9 329.270111 0.000954 0.000000 0.001176 -82.032326 0.001176 329.270111
[L_Toe3_03]
7 439.137451 -0.001907 0.000954 -179.998093 71.988327 -179.994553 439.137451
8 439.137451 -0.001907 0.000954 -179.998184 71.588951 -179.994644 439.137451
9 439.137451 -0.001907 0.000954 -179.998260 71.189568 -179.994705 439.137451
[planeLockWeightLeft]
7 999.999146 0.098073 0.076215 -0.011826 -0.004376 0.005620 999.999146
8 999.999146 0.098079 0.076206 -0.011826 -0.004376 0.005620 999.999146
9 999.999084 0.098085 0.076198 -0.011826 -0.004376 0.005620 999.999084
[R_Leg01]
7 761.455627 -0.001907 -0.000358 124.541969 -48.237213 48.720547 761.455688
8 761.455627 -0.001907 -0.000358 126.513939 -50.540749 46.738995 761.455688
9 761.455627 -0.001907 -0.000358 127.313118 -52.619495 45.712414 761.455688
[R_Leg02]
7 1441.140625 0.000000 -0.000238 0.209075 0.023693 -81.388504 1441.140625
8 1441.140625 0.000000 -0.000238 0.215221 0.033287 -76.526924 1441.140625
9 1441.140625 0.000000 -0.000238 0.218313 0.039927 -72.708855 1441.140625
[R_Leg03]
7 1686.963989 0.000954 0.001431 -0.063789 0.012236 93.128357 1686.963989
8 1686.963989 0.000954 0.001431 -0.074570 0.014093 90.163010 1686.963989
9 1686.963989 0.000954 0.001431 -0.085584 0.014820 86.422943 1686.963989
[R_Foot]
7 3041.560059 -30.531288 -11.204481 16.209427 -21.935429 32.094364 3041.734131
8 3041.560059 -30.531288 -11.204481 16.746584 -22.102329 30.014444 3041.734131
9 3041.560059 -30.531288 -11.204481 17.093454 -22.248896 28.878170 3041.734131
[planeAlignerRight]
7 -23.482670 -817.831726 16.188662 0.000000 -89.960434 -90.005180 818.328979
8 -32.204903 -835.201904 18.309631 0.000000 -89.960434 -90.005180 836.023071
9 -42.582096 -841.790649 19.111176 0.000000 -89.960434 -90.005180 843.083679
[R_Toe1_01]
7 -188.383347 -224.864899 21.052242 91.132729 0.961003 -147.713211 294.101532
8 -188.383347 -224.864899 21.052242 91.171959 0.817403 -145.765427 294.101532
9 -188.383347 -224.864899 21.052242 91.184929 0.745990 -144.696091 294.101532
[R_Toe2_01]
7 200.637817 -220.002121 -148.787384 -104.681419 8.657706 -59.074913 332.857574
8 200.637817 -220.002121 -148.787384 -104.861610 8.381021 -60.274445 332.857574
9 200.637817 -220.002121 -148.787384 -104.992775 8.353610 -60.843067 332.857574
[R_Toe3_01]
7 188.606735 -220.092957 191.126343 -70.308716 -12.299451 -61.413239 347.192566
8 188.606735 -220.092957 191.126343 -69.957657 -12.141082 -62.673141 347.192566
9 188.606735 -220.092957 191.126343 -69.797783 -12.207197 -63.261295 347.192566
[planeLockWeightRight]
7 999.999146 -0.000229 0.076189 -0.011823 -0.004379 -0.000027 999.999146
8 999.999207 -0.000267 0.076199 -0.011823 -0.004379 -0.000027 999.999207
9 999.999084 -0.000305 0.076208 -0.011823 -0.004379 -0.000027 999.999084
[R_Toe1_02]
7 413.762085 0.000477 -0.000119 0.001385 -25.850527 0.001385 413.762085
8 413.762085 0.000477 -0.000119 0.001385 -25.833609 0.001385 413.762085
9 413.762085 0.000477 -0.000119 0.001385 -25.816706 0.001385 413.762085
[R_Toe1_03]
7 464.317810 0.000000 0.001088 0.004358 58.708912 0.004358 464.317810
8 464.317810 0.000000 0.001088 0.003824 54.252003 0.003824 464.317810
9 464.317810 0.000000 0.001088 0.003494 50.750210 0.003494 464.317810
[R_Toe2_02]
7 342.234741 -0.000954 0.000238 0.001189 -71.485329 0.001189 342.234741
8 342.234741 -0.000954 0.000238 0.001190 -71.077591 0.001190 342.234741
9 342.234741 -0.000954 0.000238 0.001189 -71.326996 0.001189 342.234741
[R_Toe2_03]
7 420.210846 0.000715 -0.000268 0.019696 83.167946 0.019696 420.210846
8 420.210846 0.000715 -0.000268 0.017197 82.173340 0.017197 420.210846
9 420.210846 0.000715 -0.000268 0.018618 82.771896 0.018618 420.210846
[R_Toe3_02]
7 329.270355 -0.000477 -0.000954 0.001183 -75.191216 0.001183 329.270355
8 329.270355 -0.000477 -0.000954 0.001184 -74.748711 0.001184 329.270355
9 329.270355 -0.000477 -0.000954 0.001184 -74.923088 0.001184 329.270355
[R_Toe3_03]
7 439.137939 0.000238 0.001431 -0.014960 85.012726 -0.011460 439.137939
8 439.137939 0.000238 0.001431 -0.012478 83.857391 -0.008976 439.137939
9 439.137939 0.000238 0.001431 -0.013331 84.310318 -0.009830 439.137939
[Rear_Leg02]
7 1162.777710 -0.029802 0.005960 0.804429 -12.806335 -59.391598 1162.777710
8 1162.777710 -0.029802 0.005960 -10.793344 -9.535198 -13.067572 1162.777710
9 1162.777710 -0.029802 0.005960 -10.349288 -12.043785 -26.739273 1162.777710
[Rear_Leg03]
7 607.192505 -0.013351 -0.073195 0.006520 -0.001967 61.780285 607.192505
8 607.192505 -0.013351 -0.073195 0.003643 0.005754 36.465263 607.192505
9 607.192505 -0.013351 -0.073195 0.003864 0.005608 40.926243 607.192505
[Rear_Leg04]
7 995.874512 -0.020504 -0.011921 -0.039840 -0.016860 53.397854 995.874573
8 995.874512 -0.020504 -0.011921 -0.024569 -0.010098 14.785754 995.874573
9 995.874512 -0.020504 -0.011921 -0.027938 -0.010901 20.357908 995.874573
[Rear_Foot]
7 3096.176270 -0.067472 -0.041425 -128.698303 74.181419 46.313591 3096.176270
8 3096.176270 -0.067472 -0.041425 -123.463799 75.480156 79.961792 3096.176270
9 3096.176270 -0.067472 -0.041425 -120.823044 74.340736 79.667175 3096.176270
[planeAlignerCenter]
7 -2.962034 339.715668 -758.759460 0.000009 0.000003 -179.999985 831.343140
8 1.038494 -126.690018 -930.164307 0.000009 0.000003 -179.999985 938.752869
9 1.039295 -86.680824 -886.399841 0.000009 0.000003 -179.999985 890.628662
[Rear_Toe1_01]
7 0.653352 83.966492 -371.173737 0.082847 39.884308 90.036880 380.553192
8 0.653352 83.966492 -371.173737 0.078840 33.465572 90.035431 380.553192
9 0.653352 83.966492 -371.173737 0.073037 30.703634 90.032600 380.553192
[Rear_Toe2_01]
7 178.200760 -294.826019 -362.060547 121.578995 81.002739 50.964024 499.765686
8 178.200760 -294.826019 -362.060547 -1.680094 50.524303 -74.732666 499.765686
9 178.200760 -294.826019 -362.060547 -1.236271 52.737072 -73.991730 499.765686
[Rear_Toe3_01]
7 -153.359680 -308.780914 -362.060852 -117.546928 80.267143 130.864685 499.952881
8 -153.359680 -308.780914 -362.060852 1.735259 50.597946 -107.173172 499.952881
9 -153.359680 -308.780914 -362.060852 1.254266 52.757992 -108.002373 499.952881
[planeLockWeightCenter]
7 843.750061 -0.000000 0.076294 -0.011814 -0.004373 -0.000015 843.750061
8 1000.000244 -0.000305 0.076237 -0.011814 -0.004373 -0.000015 1000.000244
9 1000.000244 -0.000289 0.076237 -0.011814 -0.004373 -0.000015 1000.000244
[Rear_Toe1_02]
7 379.707825 0.194073 0.000477 -0.000767 -33.624729 0.000838 379.707855
8 379.707825 0.194073 0.000477 -0.000767 -33.624729 0.000838 379.707855
9 379.707825 0.194073 0.000477 -0.000767 -33.624729 0.000838 379.707855
[Rear_Toe1_03]
7 500.129700 0.165701 0.000119 0.014385 80.640274 0.014385 500.129761
8 500.129700 0.165701 0.000119 -0.012393 85.341873 -0.015893 500.129761
9 500.129700 0.165701 0.000119 -0.009361 84.070305 -0.012862 500.129761
[Rear_Toe2_02]
7 340.494507 0.000238 -0.000954 179.998825 -86.955605 179.998825 340.494507
8 340.494507 0.000238 -0.000954 0.001262 -46.954967 0.001262 340.494507
9 340.494507 0.000238 -0.000954 0.001217 -59.234310 0.001217 340.494507
[Rear_Toe2_03]
7 433.103577 0.000000 0.000238 -179.996338 53.337017 180.000000 433.103546
8 433.103577 0.000000 0.000238 -0.003308 41.042412 0.000534 433.103546
9 433.103577 0.000000 0.000238 0.003918 55.137325 0.003918 433.103546
[Rear_Toe3_02]
7 340.494141 -0.000358 -0.000477 -179.994171 -87.010170 -179.994171 340.494171
8 340.494141 -0.000358 -0.000477 -0.002496 -47.132973 -0.002496 340.494171
9 340.494141 -0.000358 -0.000477 -0.002409 -59.302567 -0.002409 340.494171
[Rear_Toe3_03]
7 433.103577 0.001431 -0.000238 179.992554 53.697041 179.999908 433.103546
8 433.103577 0.001431 -0.000238 0.000527 41.237865 -0.003312 433.103546
9 433.103577 0.001431 -0.000238 -0.000091 55.215462 -0.003755 433.103546
[Back_Bone]
7 1312.175781 -701.934692 0.000954 -3.264964 -2.253788 -83.843361 1488.125488
8 1312.175781 -701.934692 0.000954 -3.195429 -2.810387 -83.415443 1488.125488
9 1312.175781 -701.934692 0.000954 -3.130025 -3.367467 -82.987991 1488.125488
[Head]
7 1406.159424 809.709290 0.001431 -4.519755 0.864135 20.733297 1622.625488
8 1406.159424 809.709290 0.001431 -4.912630 0.679934 20.285952 1622.625488
9 1406.159424 809.709290 0.001431 -4.906478 0.381167 20.070761 1622.625488
[Motor_Bone]
7 1158.364380 -417.834747 0.000477 -1.034497 -1.094875 -107.077385 1231.419434
8 1158.364380 -417.834747 0.000477 -2.188165 -1.022762 -107.007042 1231.419434
9 1158.364380 -417.834747 0.000477 -2.074372 -0.843159 -106.828514 1231.419434
[Ping_Mechanism]
7 1309.877197 -460.425110 -1.711466 0.000103 -0.000053 82.120995 1388.442383
8 1324.249268 -463.043213 -6.354525 0.000103 -0.000053 82.120995 1402.884766
9 1329.115601 -464.743652 -9.312250 0.000103 -0.000053 82.120995 1408.056030
[BN_LookIK]
7 193.241119 1380.371704 -0.002861 0.000000 89.965736 -31.038179 1393.832153
8 193.241119 1380.371704 -0.002861 0.000000 89.965736 -31.038179 1393.832153
9 193.241119 1380.371704 -0.002861 0.000000 89.965736 -31.038179 1393.832153
[bottomMouth]
7 -435.092926 615.759399 -0.000954 -0.000022 0.000016 73.527184 753.966492
8 -435.092926 615.759399 -0.000954 -0.000022 0.000016 73.527184 753.966492
9 -435.092926 615.759399 -0.000954 -0.000022 0.000016 73.527184 753.966492
[L_Mouth01]
7 554.440979 7.658243 838.222046 150.204178 23.759130 109.605339 1005.027161
8 554.440979 7.658243 838.222046 150.204178 23.759130 109.605339 1005.027161
9 554.440979 7.658243 838.222046 150.204178 23.759130 109.605339 1005.027161
[L_mouthFront]
7 551.629089 934.514771 339.150421 0.000081 2.804060 79.119301 1136.941284
8 551.629089 934.514771 339.150421 0.000081 2.804060 79.119301 1136.941284
9 551.629089 934.514771 339.150421 0.000081 2.804060 79.119301 1136.941284
[mouthGun]
7 55.332661 1627.420898 0.000000 0.000023 0.000009 -11.038128 1628.361328
8 55.332661 1627.420898 0.000000 0.000023 0.000009 -11.038128 1628.361328
9 55.332661 1627.420898 0.000000 0.000023 0.000009 -11.038128 1628.361328
[R_Mouth01]
7 554.442383 7.659197 -838.223938 29.795891 -23.759109 109.605331 1005.029541
8 554.442383 7.659197 -838.223938 29.795891 -23.759109 109.605331 1005.029541
9 554.442383 7.659197 -838.223938 29.795891 -23.759109 109.605331 1005.029541
[R_mouthFront]
7 551.629089 934.514282 -339.151367 0.000029 -2.803930 79.119133 1136.941162
8 551.629089 934.514282 -339.151367 0.000029 -2.803930 79.119133 1136.941162
9 551.629089 934.514282 -339.151367 0.000029 -2.803930 79.119133 1136.941162
[TopMouth]
7 461.269867 -56.106091 -0.008583 -0.000059 -0.000268 92.025169 464.669525
8 461.269867 -56.106091 -0.008583 -0.000059 -0.000268 92.025169 464.669525
9 461.269867 -56.106091 -0.008583 -0.000059 -0.000268 92.025169 464.669525
[weapon_bone]
7 -987.239868 1448.372803 0.001431 0.000000 89.965736 -31.038221 1752.833740
8 -987.239868 1448.372803 0.001431 0.000000 89.965736 -31.038221 1752.833740
9 -987.239868 1448.372803 0.001431 0.000000 89.965736 -31.038221 1752.833740
